<?xml version="1.0" standalone="no"?>
<!DOCTYPE svg PUBLIC "-//W3C//DTD SVG 20010904//EN"
 "http://www.w3.org/TR/2001/REC-SVG-20010904/DTD/svg10.dtd">
<svg version="1.0" xmlns="http://www.w3.org/2000/svg"
 width="1000.000000pt" height="1000.000000pt" viewBox="0 0 1000.000000 1000.000000"
 preserveAspectRatio="xMidYMid meet">
<metadata>
Created by potrace 1.15, written by Peter Selinger 2001-2017
</metadata>
<g transform="translate(0.000000,1000.000000) scale(0.100000,-0.100000)"
fill="#000000" stroke="none">
<path d="M4029 8228 c-13 -5 -41 -7 -61 -5 -21 3 -41 1 -44 -5 -4 -6 -24 -8
-45 -5 -23 3 -39 1 -39 -5 0 -6 -7 -7 -15 -4 -19 7 -219 -34 -331 -68 -534
-161 -878 -492 -1029 -989 -26 -86 -29 -90 -114 -176 -148 -147 -208 -303
-182 -471 65 -425 593 -594 889 -286 96 100 142 212 142 346 0 149 -48 261
-166 390 -96 104 -98 116 -48 262 139 406 475 708 940 843 99 29 323 71 454
86 95 10 229 1 456 -32 229 -33 295 -16 148 38 -48 17 -98 27 -166 30 -54 3
-98 9 -98 12 0 3 -16 7 -35 8 -56 3 -69 4 -85 10 -8 3 -34 5 -57 4 -23 -2 -48
1 -55 5 -6 4 -33 6 -59 5 -27 -1 -50 2 -54 9 -8 14 -309 12 -346 -2z m-1234
-1392 c102 -47 168 -150 169 -261 1 -183 -182 -325 -357 -275 -64 17 -135 76
-171 140 -27 49 -31 64 -31 135 0 70 4 87 30 134 35 63 92 115 149 135 65 23
153 20 211 -8z"/>
<path d="M2092 8137 c-189 -136 -311 -252 -453 -432 -89 -112 -137 -189 -199
-318 -158 -329 -223 -677 -200 -1074 28 -474 169 -941 419 -1388 136 -243 298
-471 590 -831 35 -43 78 -108 94 -143 28 -59 29 -68 24 -148 -5 -71 -3 -94 15
-141 117 -316 498 -434 787 -244 123 81 221 267 221 420 0 133 -55 268 -152
368 -97 101 -201 145 -378 159 -47 4 -99 13 -117 22 -33 15 -172 160 -309 323
-372 441 -615 892 -749 1394 -53 200 -72 308 -86 501 -20 263 1 451 77 703 82
272 237 521 474 760 61 62 110 118 107 125 -2 7 -17 13 -33 15 -24 2 -51 -12
-132 -71z m909 -4039 c212 -125 201 -407 -19 -515 -116 -57 -254 -23 -333 81
-44 59 -59 104 -59 185 0 123 68 221 185 268 17 8 61 11 106 10 60 -3 85 -9
120 -29z"/>
<path d="M7686 6748 c13 -44 44 -98 127 -220 284 -418 484 -905 546 -1333 78
-527 -31 -1023 -309 -1417 -78 -111 -265 -302 -375 -385 -341 -256 -797 -421
-1296 -469 -345 -33 -756 1 -1169 96 -283 66 -288 67 -304 93 -7 12 -23 63
-36 112 -12 50 -35 117 -50 150 -77 171 -254 318 -432 360 -83 19 -267 19
-343 0 -234 -59 -426 -250 -485 -481 -24 -94 -26 -241 -5 -332 34 -145 129
-296 238 -378 196 -148 415 -181 653 -98 160 55 200 54 440 -18 249 -75 397
-110 629 -147 505 -81 982 -71 1457 30 217 46 379 97 548 173 584 263 1017
771 1165 1366 172 692 -27 1566 -529 2330 -155 236 -436 590 -467 590 -6 0 -7
-10 -3 -22z m-3311 -3327 c154 -72 246 -246 215 -405 -29 -149 -128 -259 -269
-300 -252 -74 -512 135 -488 391 19 203 202 361 405 349 53 -3 90 -12 137 -35z"/>
<path d="M6975 6091 c-100 -27 -180 -92 -227 -184 -73 -146 -51 -289 66 -425
75 -87 74 -126 -2 -283 -61 -126 -128 -210 -233 -293 -259 -205 -618 -284
-1044 -231 -66 8 -121 15 -122 15 -2 0 -3 -6 -3 -13 0 -20 261 -76 410 -89
212 -17 454 2 644 52 230 61 354 127 494 264 117 113 202 246 247 386 25 79
36 97 103 174 33 38 73 94 89 125 25 50 28 67 28 151 0 82 -4 103 -27 152 -35
76 -95 138 -165 173 -48 24 -73 29 -143 31 -47 2 -98 -1 -115 -5z m190 -178
c83 -46 119 -174 76 -269 -23 -50 -63 -80 -124 -94 -130 -29 -237 57 -237 190
0 129 95 209 225 190 22 -4 49 -11 60 -17z"/>
</g>
</svg>
